<?xml version="1.0" standalone="no"?>
<!DOCTYPE svg PUBLIC "-//W3C//DTD SVG 20010904//EN"
 "http://www.w3.org/TR/2001/REC-SVG-20010904/DTD/svg10.dtd">
<svg version="1.0" xmlns="http://www.w3.org/2000/svg"
 width="300.000000pt" height="300.000000pt" viewBox="0 0 300.000000 300.000000"
 preserveAspectRatio="xMidYMid meet">
<metadata>
Created by potrace 1.10, written by Peter Selinger 2001-2011
</metadata>
<g transform="translate(0.000000,300.000000) scale(0.100000,-0.100000)"
fill="#000000" stroke="none">
<path d="M617 2262 c-10 -10 -17 -24 -17 -32 0 -7 70 -83 155 -169 85 -87 155
-160 155 -164 0 -4 -18 -16 -39 -27 -207 -105 -323 -359 -282 -616 34 -209
154 -370 350 -469 109 -55 128 -58 401 -62 245 -5 256 -4 273 15 17 18 17 23
4 49 -22 42 -270 281 -298 287 -13 3 -60 7 -104 9 -166 8 -270 101 -283 252
-6 77 22 147 82 203 80 75 87 77 311 80 213 3 259 7 234 23 -7 5 -100 9 -205
9 -220 0 -258 -8 -339 -69 -172 -130 -144 -402 52 -498 48 -23 73 -28 156 -31
l99 -4 152 -149 151 -149 -240 0 c-277 0 -338 9 -448 67 -104 55 -216 167
-261 264 -48 101 -66 177 -66 279 0 218 100 391 282 485 40 21 74 39 76 40 1
1 -80 84 -180 183 l-183 182 180 0 180 0 305 -300 c168 -165 307 -295 308
-290 2 6 -10 27 -26 48 -39 47 -529 532 -562 555 -21 14 -50 17 -191 17 -148
0 -168 -2 -182 -18z"/>
<path d="M1385 2260 c-26 -29 -13 -48 124 -182 170 -165 148 -152 265 -158
116 -6 168 -26 225 -88 97 -106 95 -274 -4 -368 -80 -75 -119 -84 -354 -84
-206 0 -221 -3 -221 -44 0 -21 500 -532 574 -587 l39 -29 167 0 c149 0 169 2
183 18 10 10 17 24 17 32 0 7 -69 82 -152 167 -84 85 -154 158 -156 162 -2 5
21 22 50 39 203 114 312 367 267 618 -45 251 -223 441 -473 504 -68 17 -113
20 -306 20 -215 0 -228 -1 -245 -20z m549 -30 c183 -47 322 -161 400 -331 44
-95 60 -188 53 -298 -14 -213 -114 -367 -296 -457 -31 -15 -57 -28 -59 -29 -1
-1 80 -84 180 -183 l183 -182 -180 0 -181 0 -304 299 -305 299 225 4 c211 3
228 5 278 27 65 29 134 104 156 168 20 60 20 146 0 206 -22 65 -91 139 -156
167 -40 18 -77 25 -149 28 l-96 4 -154 149 -154 148 241 1 c208 0 251 -3 318
-20z"/>
</g>
</svg>
