<svg version="1.1" id="Layer_1" xmlns="http://www.w3.org/2000/svg" xmlns:xlink="http://www.w3.org/1999/xlink" x="0px" y="0px"
	 width="100%" viewBox="0 0 400 400" enable-background="new 0 0 400 400" xml:space="preserve">
<path fill="#2970FE" opacity="1.000000" stroke="none" 
	d="
M277.000000,401.000000 
	C184.695358,401.000000 92.890717,401.000000 1.043040,401.000000 
	C1.043040,267.737030 1.043040,134.474045 1.043040,1.105529 
	C134.221252,1.105529 267.442596,1.105529 400.831970,1.105529 
	C400.831970,134.333160 400.831970,267.666565 400.831970,401.000000 
	C359.807465,401.000000 318.653717,401.000000 277.000000,401.000000 
M183.767075,264.210785 
	C183.767075,264.210785 183.743607,264.282166 183.718933,263.610779 
	C182.066696,261.770874 180.534958,258.504700 178.740082,258.353027 
	C172.875900,257.857574 166.915833,258.497192 160.254425,258.784637 
	C159.532440,258.651184 158.810471,258.517700 157.780670,257.797729 
	C155.334229,256.939697 152.865723,256.139435 150.444870,255.214355 
	C133.184479,248.618744 121.233665,228.489380 127.700409,211.026337 
	C129.230453,206.894562 131.343872,202.942413 133.515381,199.091751 
	C138.985123,189.392365 148.902496,185.330170 158.582703,184.407318 
	C174.249466,182.913712 190.173096,184.141739 205.988174,184.127899 
	C207.333679,184.126724 209.690857,183.635544 209.816498,183.015228 
	C210.092224,181.653778 209.679001,179.675568 208.765167,178.637421 
	C205.690536,175.144501 202.170944,172.046234 199.037582,168.600555 
	C197.769958,167.206589 197.348251,165.013367 196.024887,163.707489 
	C194.238541,161.944717 191.630264,160.983276 189.951324,159.149902 
	C186.633072,155.526443 184.042938,151.198608 180.538544,147.792984 
	C176.376541,143.748291 171.458588,140.492188 167.105957,136.626633 
	C165.734161,135.408356 165.428986,133.021439 164.099167,131.715759 
	C162.193329,129.844513 159.813995,128.447876 157.602478,126.897598 
	C154.957138,125.043205 152.275574,123.240456 149.775894,121.211578 
	C149.775894,121.211578 149.580353,121.387360 149.643707,120.766197 
	C149.368713,119.168945 149.093719,117.571693 149.057114,117.359055 
	C146.020554,114.773232 143.816711,112.727234 141.437637,110.910789 
	C137.983612,108.273621 134.511978,103.821594 130.856659,103.620605 
	C118.455063,102.938667 105.967606,103.724678 93.517578,104.102638 
	C91.273758,104.170753 89.051872,104.961754 86.148567,105.556534 
	C87.410858,107.452545 87.844193,108.366890 88.508560,109.059685 
	C93.854889,114.634819 99.190948,120.221657 104.634369,125.701385 
	C112.150642,133.267776 119.633118,140.876251 127.393265,148.187347 
	C130.143433,150.778381 129.900131,151.753754 126.703377,153.455765 
	C121.441368,156.257370 116.106400,159.117661 111.433594,162.762650 
	C108.223091,165.266968 106.081352,169.141434 102.997406,172.120422 
	C103.153709,172.210541 103.310020,172.300674 102.750809,172.486526 
	C101.679100,173.214294 100.348465,173.735474 99.576843,174.702667 
	C93.681511,182.092133 90.199066,190.710342 88.132027,199.772400 
	C83.426514,220.401749 85.400932,240.312759 95.925468,258.982880 
	C96.830826,260.588959 98.558662,261.731415 100.140450,263.247192 
	C100.140450,263.247192 100.204254,263.523926 100.225304,264.285919 
	C102.443436,267.747101 104.352905,271.471191 106.994179,274.571930 
	C108.607857,276.466339 111.346474,277.402527 113.814659,278.800446 
	C113.814659,278.800446 113.919289,279.012970 114.094391,279.682587 
	C119.067001,283.425293 123.657623,287.899353 129.100342,290.741974 
	C137.600449,295.181396 146.733475,298.329529 156.554703,298.554901 
	C174.964340,298.977356 193.373611,299.440918 211.785736,299.679138 
	C213.323044,299.699066 216.001251,298.321686 216.166290,297.279480 
	C216.413803,295.716309 215.231659,293.583954 214.039337,292.243469 
	C213.075943,291.160339 211.199768,290.889069 209.803009,290.227844 
	C209.803009,290.227844 209.792450,290.307373 209.639679,289.583893 
	C208.632721,284.726288 204.946457,282.704193 200.910858,281.087952 
	C200.910858,281.087952 200.797470,281.230194 200.723328,280.525879 
	C195.408539,275.418945 190.093765,270.312012 184.845398,265.172668 
	C184.845398,265.172668 184.853760,265.246094 184.588959,264.777527 
	C184.289948,264.588226 183.990936,264.398956 183.767075,264.210785 
M292.324493,237.546997 
	C295.795410,237.663406 296.489624,235.393509 296.743347,232.749466 
	C296.743347,232.749466 296.608215,232.570297 297.321136,232.594360 
	C301.114899,227.947601 306.213440,223.854584 308.463593,218.552704 
	C315.910889,201.005066 318.910217,182.766220 314.013977,163.734467 
	C311.673645,154.637482 308.296143,146.179016 302.688843,138.640625 
	C299.915863,134.912643 297.367859,130.983582 294.296692,127.519028 
	C289.693573,122.326332 284.490143,117.809570 277.177307,116.259499 
	C277.177307,116.259499 277.084961,116.067154 276.888763,115.383041 
	C276.218079,114.680382 275.668884,113.759903 274.858398,113.307922 
	C263.751038,107.113678 251.846512,103.994209 239.098022,104.036430 
	C223.123154,104.089325 207.147858,104.014359 191.172928,104.059227 
	C189.294098,104.064499 187.416428,104.477921 184.134125,104.869751 
	C186.298401,107.762802 187.520584,109.854752 189.169830,111.525024 
	C198.289154,120.760651 207.774551,129.650497 216.594879,139.159409 
	C221.333572,144.268036 226.478500,146.345505 233.318146,146.037552 
	C238.386719,145.809326 243.560135,146.428879 248.590286,147.257156 
	C253.344955,148.040054 256.283295,153.113937 261.492737,153.326263 
	C262.156708,153.353302 262.805359,154.282791 263.423248,154.836395 
	C275.670258,165.809189 280.324799,185.055466 271.698975,199.080902 
	C268.859283,203.698151 265.519226,208.007629 262.357147,212.452316 
	C262.357147,212.452316 262.356140,212.503464 261.593536,212.334229 
	C260.330719,212.660828 258.799927,212.639679 257.849670,213.371887 
	C252.674561,217.359558 246.792847,218.269775 240.477524,218.139069 
	C232.178818,217.967346 223.873367,218.152557 215.571640,218.084106 
	C209.688583,218.035583 203.796188,217.567978 197.930283,217.815704 
	C195.826950,217.904510 193.788956,219.540497 191.721130,220.470352 
	C192.564697,222.275055 193.038986,224.416367 194.320282,225.822067 
	C198.351089,230.244186 202.447815,234.667389 206.983658,238.546890 
	C210.103745,241.215485 211.541611,246.274475 217.134277,246.199799 
	C217.134277,246.199799 217.252975,246.479950 217.037064,247.127579 
	C216.619507,248.313354 216.201950,249.499146 216.065643,249.886246 
	C218.728790,251.746780 221.122971,253.019531 223.016464,254.819107 
	C228.188644,259.734772 232.903351,265.156982 238.284668,269.818176 
	C241.637634,272.722443 243.241257,278.055267 249.134216,278.199768 
	C249.134216,278.199768 249.252930,278.479889 249.054337,279.081848 
	C248.686707,279.992493 248.319092,280.903107 248.370117,280.776703 
	C252.911591,284.952911 257.574554,288.415833 261.176453,292.758820 
	C265.830719,298.370636 271.647827,299.937408 278.382782,299.902008 
	C280.048096,299.893250 281.719299,299.812103 283.377869,299.918518 
	C291.110046,300.414581 298.837158,301.282867 306.569580,301.321747 
	C309.247162,301.335236 311.934875,299.337799 314.617950,298.258881 
	C313.467072,296.078308 312.706482,293.540192 311.095276,291.781342 
	C305.265717,285.417603 299.307861,279.151764 293.087311,273.172638 
	C288.951324,269.197205 284.285980,265.772522 279.931061,262.065979 
	C279.931061,262.065979 279.902283,262.142273 279.788483,261.446228 
	C278.750122,259.762207 277.877960,257.943665 276.643494,256.418365 
	C272.258881,251.000961 272.354370,250.439682 278.800598,247.624054 
	C279.405670,247.359772 280.189697,247.349396 280.656250,246.948425 
	C284.262360,243.849182 287.810730,240.682739 291.401489,237.360031 
	C291.401489,237.360031 291.580292,237.360199 292.324493,237.546997 
z"/>
<path fill="#FAFDFD" opacity="1.000000" stroke="none" 
	d="
M249.252930,278.479889 
	C249.252930,278.479889 249.134216,278.199768 248.882843,277.820251 
	C238.171951,267.120453 227.712463,256.800201 217.252975,246.479950 
	C217.252975,246.479950 217.134277,246.199799 216.882874,245.820282 
	C208.870148,237.587830 201.108856,229.734909 193.347549,221.881989 
	C193.496460,221.472260 193.645370,221.062531 193.794266,220.652802 
	C195.873032,220.652802 197.951782,220.650635 200.030533,220.653168 
	C212.834946,220.668777 225.640244,220.783966 238.443451,220.667816 
	C247.264679,220.587784 255.595779,218.766785 262.356140,212.503464 
	C262.356140,212.503464 262.357147,212.452316 262.713440,212.375137 
	C275.627625,202.023483 280.411743,188.726532 276.503693,173.159393 
	C272.552399,157.419891 262.041260,147.556381 245.853180,144.748749 
	C240.012573,143.735764 233.908600,144.335693 227.965561,143.770767 
	C225.707764,143.556137 223.024994,142.693542 221.456085,141.175354 
	C210.698273,130.765228 200.176697,120.110664 189.607758,109.506203 
	C188.755966,108.651566 188.119324,107.582512 186.638580,105.633804 
	C189.697159,105.633804 191.634995,105.633392 193.572815,105.633881 
	C204.219864,105.636589 214.880005,105.977951 225.511047,105.566826 
	C243.611374,104.866867 260.999969,107.124092 277.084961,116.067154 
	C277.084961,116.067154 277.177307,116.259499 277.485199,116.550026 
	C289.310913,124.088364 298.956451,133.370560 304.917175,145.585358 
	C319.815918,176.116043 318.274872,205.381714 296.608215,232.570297 
	C296.608215,232.570297 296.743347,232.749466 296.357971,232.787415 
	C294.508484,234.336960 293.044373,235.848587 291.580292,237.360199 
	C291.580292,237.360199 291.401489,237.360031 291.082031,237.566666 
	C283.570648,242.307007 276.378754,246.840714 268.706268,251.677383 
	C272.484955,255.209305 276.193604,258.675781 279.902283,262.142273 
	C279.902283,262.142273 279.931061,262.065979 280.012207,262.398682 
	C291.080963,273.830750 302.068573,284.930054 313.439453,296.416565 
	C311.954651,296.912415 311.504364,297.192902 311.053070,297.194550 
	C297.762939,297.243591 284.470856,297.377563 271.184570,297.160889 
	C269.337891,297.130737 267.218384,295.678070 265.741852,294.321533 
	C260.130585,289.166107 254.731400,283.779846 249.252930,278.479889 
z"/>
<path fill="#FBFDFD" opacity="1.000000" stroke="none" 
	d="
M113.919289,279.012970 
	C113.919289,279.012970 113.814659,278.800446 113.551163,278.463287 
	C108.926529,273.258728 104.565392,268.391327 100.204254,263.523926 
	C100.204254,263.523926 100.140450,263.247192 99.962677,262.813904 
	C93.303146,251.880707 89.124260,240.584503 88.036331,228.232895 
	C86.227943,207.701614 90.678055,188.892395 103.466324,172.390823 
	C103.310020,172.300674 103.153709,172.210541 103.531662,172.126663 
	C112.191635,163.361984 122.076233,157.088364 133.901566,152.140259 
	C118.456680,136.648468 103.680649,121.827545 88.766586,106.868179 
	C89.832642,106.188560 90.097977,105.871712 90.364761,105.870499 
	C104.008705,105.808289 117.653732,105.690811 131.295547,105.847664 
	C132.849197,105.865524 134.620331,107.180618 135.886963,108.336517 
	C140.543503,112.585892 145.029922,117.021706 149.580353,121.387360 
	C149.580353,121.387360 149.775894,121.211578 149.821716,121.618698 
	C155.941956,128.280289 162.016357,134.534775 168.092285,141.158020 
	C168.251923,144.750427 169.296417,146.944427 173.099335,145.911789 
	C173.050720,145.945908 173.117905,145.847946 173.131058,146.207352 
	C174.136948,147.346069 175.129669,148.125397 176.075134,148.938110 
	C176.027847,148.971512 176.098938,148.880127 176.059357,149.231476 
	C175.419037,152.959274 177.291885,153.188202 180.091766,152.708954 
	C181.241501,153.896088 182.126266,154.948990 183.021530,156.382050 
	C183.895493,160.158463 184.645187,163.689194 189.631805,162.301361 
	C189.697845,162.312775 189.692642,162.446701 189.599579,162.835846 
	C189.771088,167.408966 190.873962,170.613495 196.464844,169.063324 
	C200.875229,172.981689 204.986176,176.760925 209.097107,180.540176 
	C208.781311,181.135315 208.465530,181.730453 208.149734,182.325592 
	C206.254410,182.325592 204.359085,182.326233 202.463760,182.325500 
	C189.308502,182.320450 176.153091,182.275543 162.998016,182.322052 
	C151.966873,182.361038 142.372101,186.133575 134.880890,194.283859 
	C124.098686,206.014694 121.135811,219.748138 126.980316,234.548309 
	C132.455902,248.414215 142.800232,256.859436 158.088486,258.384247 
	C158.810471,258.517700 159.532440,258.651184 161.073959,258.882202 
	C169.414566,259.767700 177.884460,256.645721 183.743607,264.282166 
	C183.743607,264.282166 183.767075,264.210785 183.822052,264.477631 
	C184.202591,264.911682 184.528168,265.078888 184.853760,265.246094 
	C184.853760,265.246094 184.845398,265.172668 184.910553,265.510376 
	C190.249619,270.975464 195.523544,276.102844 200.797470,281.230194 
	C200.797470,281.230194 200.910858,281.087952 200.940170,281.466309 
	C203.910477,284.665588 206.851456,287.486481 209.792450,290.307373 
	C209.792450,290.307373 209.803009,290.227844 209.882263,290.556458 
	C211.533051,292.673553 213.104568,294.462036 215.317276,296.980225 
	C212.586121,297.132446 210.978775,297.298462 209.371307,297.299591 
	C195.231430,297.309570 181.090805,297.368744 166.952042,297.237091 
	C161.978531,297.190796 156.969284,296.953400 152.046143,296.287384 
	C137.649338,294.339630 125.317764,287.666687 113.919289,279.012970 
M193.524002,173.497330 
	C193.524002,173.497330 193.487381,173.509781 193.524002,173.497330 
z"/>
<path fill="#5083EA" opacity="1.000000" stroke="none" 
	d="
M168.090775,140.789246 
	C162.016357,134.534775 155.941956,128.280289 149.738617,121.720581 
	C152.275574,123.240456 154.957138,125.043205 157.602478,126.897598 
	C159.813995,128.447876 162.193329,129.844513 164.099167,131.715759 
	C165.428986,133.021439 165.734161,135.408356 167.105957,136.626633 
	C171.458588,140.492188 176.376541,143.748291 180.538544,147.792984 
	C184.042938,151.198608 186.633072,155.526443 189.951324,159.149902 
	C191.630264,160.983276 194.238541,161.944717 196.024887,163.707489 
	C197.348251,165.013367 197.769958,167.206589 199.037582,168.600555 
	C202.170944,172.046234 205.690536,175.144501 208.765167,178.637421 
	C209.679001,179.675568 210.092224,181.653778 209.816498,183.015228 
	C209.690857,183.635544 207.333679,184.126724 205.988174,184.127899 
	C190.173096,184.141739 174.249466,182.913712 158.582703,184.407318 
	C148.902496,185.330170 138.985123,189.392365 133.515381,199.091751 
	C131.343872,202.942413 129.230453,206.894562 127.700409,211.026337 
	C121.233665,228.489380 133.184479,248.618744 150.444870,255.214355 
	C152.865723,256.139435 155.334229,256.939697 157.934570,258.091003 
	C142.800232,256.859436 132.455902,248.414215 126.980316,234.548309 
	C121.135811,219.748138 124.098686,206.014694 134.880890,194.283859 
	C142.372101,186.133575 151.966873,182.361038 162.998016,182.322052 
	C176.153091,182.275543 189.308502,182.320450 202.463760,182.325500 
	C204.359085,182.326233 206.254410,182.325592 208.149734,182.325592 
	C208.465530,181.730453 208.781311,181.135315 209.097107,180.540176 
	C204.986176,176.760925 200.875229,172.981689 196.314575,168.759857 
	C193.807449,166.360397 191.750046,164.403549 189.692642,162.446701 
	C189.692642,162.446701 189.697845,162.312775 189.500702,162.015320 
	C187.206055,159.812546 185.108551,157.907211 183.011032,156.001892 
	C182.126266,154.948990 181.241501,153.896088 179.946442,152.408142 
	C178.390396,150.942108 177.244659,149.911118 176.098938,148.880127 
	C176.098938,148.880127 176.027847,148.971512 175.954010,148.649902 
	C174.959412,147.501526 174.038651,146.674728 173.117905,145.847946 
	C173.117905,145.847946 173.050720,145.945908 172.967499,145.610199 
	C171.286438,143.779388 169.688614,142.284317 168.090775,140.789246 
z"/>
<path fill="#4E83EB" opacity="1.000000" stroke="none" 
	d="
M276.986877,115.725098 
	C260.999969,107.124092 243.611374,104.866867 225.511047,105.566826 
	C214.880005,105.977951 204.219864,105.636589 193.572815,105.633881 
	C191.634995,105.633392 189.697159,105.633804 186.638580,105.633804 
	C188.119324,107.582512 188.755966,108.651566 189.607758,109.506203 
	C200.176697,120.110664 210.698273,130.765228 221.456085,141.175354 
	C223.024994,142.693542 225.707764,143.556137 227.965561,143.770767 
	C233.908600,144.335693 240.012573,143.735764 245.853180,144.748749 
	C262.041260,147.556381 272.552399,157.419891 276.503693,173.159393 
	C280.411743,188.726532 275.627625,202.023483 262.738831,212.377899 
	C265.519226,208.007629 268.859283,203.698151 271.698975,199.080902 
	C280.324799,185.055466 275.670258,165.809189 263.423248,154.836395 
	C262.805359,154.282791 262.156708,153.353302 261.492737,153.326263 
	C256.283295,153.113937 253.344955,148.040054 248.590286,147.257156 
	C243.560135,146.428879 238.386719,145.809326 233.318146,146.037552 
	C226.478500,146.345505 221.333572,144.268036 216.594879,139.159409 
	C207.774551,129.650497 198.289154,120.760651 189.169830,111.525024 
	C187.520584,109.854752 186.298401,107.762802 184.134125,104.869751 
	C187.416428,104.477921 189.294098,104.064499 191.172928,104.059227 
	C207.147858,104.014359 223.123154,104.089325 239.098022,104.036430 
	C251.846512,103.994209 263.751038,107.113678 274.858398,113.307922 
	C275.668884,113.759903 276.218079,114.680382 276.986877,115.725098 
z"/>
<path fill="#5083EA" opacity="1.000000" stroke="none" 
	d="
M149.612030,121.076782 
	C145.029922,117.021706 140.543503,112.585892 135.886963,108.336517 
	C134.620331,107.180618 132.849197,105.865524 131.295547,105.847664 
	C117.653732,105.690811 104.008705,105.808289 90.364761,105.870499 
	C90.097977,105.871712 89.832642,106.188560 88.766586,106.868179 
	C103.680649,121.827545 118.456680,136.648468 133.901566,152.140259 
	C122.076233,157.088364 112.191635,163.361984 103.763916,172.268188 
	C106.081352,169.141434 108.223091,165.266968 111.433594,162.762650 
	C116.106400,159.117661 121.441368,156.257370 126.703377,153.455765 
	C129.900131,151.753754 130.143433,150.778381 127.393265,148.187347 
	C119.633118,140.876251 112.150642,133.267776 104.634369,125.701385 
	C99.190948,120.221657 93.854889,114.634819 88.508560,109.059685 
	C87.844193,108.366890 87.410858,107.452545 86.148567,105.556534 
	C89.051872,104.961754 91.273758,104.170753 93.517578,104.102638 
	C105.967606,103.724678 118.455063,102.938667 130.856659,103.620605 
	C134.511978,103.821594 137.983612,108.273621 141.437637,110.910789 
	C143.816711,112.727234 146.020554,114.773232 149.057114,117.359055 
	C149.093719,117.571693 149.368713,119.168945 149.612030,121.076782 
z"/>
<path fill="#4E83EB" opacity="1.000000" stroke="none" 
	d="
M249.153625,278.780884 
	C254.731400,283.779846 260.130585,289.166107 265.741852,294.321533 
	C267.218384,295.678070 269.337891,297.130737 271.184570,297.160889 
	C284.470856,297.377563 297.762939,297.243591 311.053070,297.194550 
	C311.504364,297.192902 311.954651,296.912415 313.439453,296.416565 
	C302.068573,284.930054 291.080963,273.830750 279.975464,262.416382 
	C284.285980,265.772522 288.951324,269.197205 293.087311,273.172638 
	C299.307861,279.151764 305.265717,285.417603 311.095276,291.781342 
	C312.706482,293.540192 313.467072,296.078308 314.617950,298.258881 
	C311.934875,299.337799 309.247162,301.335236 306.569580,301.321747 
	C298.837158,301.282867 291.110046,300.414581 283.377869,299.918518 
	C281.719299,299.812103 280.048096,299.893250 278.382782,299.902008 
	C271.647827,299.937408 265.830719,298.370636 261.176453,292.758820 
	C257.574554,288.415833 252.911591,284.952911 248.370117,280.776703 
	C248.319092,280.903107 248.686707,279.992493 249.153625,278.780884 
z"/>
<path fill="#4E83EB" opacity="1.000000" stroke="none" 
	d="
M296.964661,232.582336 
	C318.274872,205.381714 319.815918,176.116043 304.917175,145.585358 
	C298.956451,133.370560 289.310913,124.088364 277.591888,116.550613 
	C284.490143,117.809570 289.693573,122.326332 294.296692,127.519028 
	C297.367859,130.983582 299.915863,134.912643 302.688843,138.640625 
	C308.296143,146.179016 311.673645,154.637482 314.013977,163.734467 
	C318.910217,182.766220 315.910889,201.005066 308.463593,218.552704 
	C306.213440,223.854584 301.114899,227.947601 296.964661,232.582336 
z"/>
<path fill="#5083EA" opacity="1.000000" stroke="none" 
	d="
M114.006836,279.347778 
	C125.317764,287.666687 137.649338,294.339630 152.046143,296.287384 
	C156.969284,296.953400 161.978531,297.190796 166.952042,297.237091 
	C181.090805,297.368744 195.231430,297.309570 209.371307,297.299591 
	C210.978775,297.298462 212.586121,297.132446 215.317276,296.980225 
	C213.104568,294.462036 211.533051,292.673553 209.845016,290.571350 
	C211.199768,290.889069 213.075943,291.160339 214.039337,292.243469 
	C215.231659,293.583954 216.413803,295.716309 216.166290,297.279480 
	C216.001251,298.321686 213.323044,299.699066 211.785736,299.679138 
	C193.373611,299.440918 174.964340,298.977356 156.554703,298.554901 
	C146.733475,298.329529 137.600449,295.181396 129.100342,290.741974 
	C123.657623,287.899353 119.067001,283.425293 114.006836,279.347778 
z"/>
<path fill="#4E83EB" opacity="1.000000" stroke="none" 
	d="
M261.974854,212.418854 
	C255.595779,218.766785 247.264679,220.587784 238.443451,220.667816 
	C225.640244,220.783966 212.834946,220.668777 200.030533,220.653168 
	C197.951782,220.650635 195.873032,220.652802 193.794266,220.652802 
	C193.645370,221.062531 193.496460,221.472260 193.347549,221.881989 
	C201.108856,229.734909 208.870148,237.587830 216.746399,245.753052 
	C211.541611,246.274475 210.103745,241.215485 206.983658,238.546890 
	C202.447815,234.667389 198.351089,230.244186 194.320282,225.822067 
	C193.038986,224.416367 192.564697,222.275055 191.721130,220.470352 
	C193.788956,219.540497 195.826950,217.904510 197.930283,217.815704 
	C203.796188,217.567978 209.688583,218.035583 215.571640,218.084106 
	C223.873367,218.152557 232.178818,217.967346 240.477524,218.139069 
	C246.792847,218.269775 252.674561,217.359558 257.849670,213.371887 
	C258.799927,212.639679 260.330719,212.660828 261.974854,212.418854 
z"/>
<path fill="#5083EA" opacity="1.000000" stroke="none" 
	d="
M103.108566,172.438675 
	C90.678055,188.892395 86.227943,207.701614 88.036331,228.232895 
	C89.124260,240.584503 93.303146,251.880707 99.844673,262.734924 
	C98.558662,261.731415 96.830826,260.588959 95.925468,258.982880 
	C85.400932,240.312759 83.426514,220.401749 88.132027,199.772400 
	C90.199066,190.710342 93.681511,182.092133 99.576843,174.702667 
	C100.348465,173.735474 101.679100,173.214294 103.108566,172.438675 
z"/>
<path fill="#4E83EB" opacity="1.000000" stroke="none" 
	d="
M217.145020,246.803772 
	C227.712463,256.800201 238.171951,267.120453 248.746368,277.752991 
	C243.241257,278.055267 241.637634,272.722443 238.284668,269.818176 
	C232.903351,265.156982 228.188644,259.734772 223.016464,254.819107 
	C221.122971,253.019531 218.728790,251.746780 216.065643,249.886246 
	C216.201950,249.499146 216.619507,248.313354 217.145020,246.803772 
z"/>
<path fill="#4E83EB" opacity="1.000000" stroke="none" 
	d="
M279.845398,261.794250 
	C276.193604,258.675781 272.484955,255.209305 268.706268,251.677383 
	C276.378754,246.840714 283.570648,242.307007 291.069794,237.655212 
	C287.810730,240.682739 284.262360,243.849182 280.656250,246.948425 
	C280.189697,247.349396 279.405670,247.359772 278.800598,247.624054 
	C272.354370,250.439682 272.258881,251.000961 276.643494,256.418365 
	C277.877960,257.943665 278.750122,259.762207 279.845398,261.794250 
z"/>
<path fill="#5083EA" opacity="1.000000" stroke="none" 
	d="
M200.760406,280.878052 
	C195.523544,276.102844 190.249619,270.975464 184.877350,265.526611 
	C190.093765,270.312012 195.408539,275.418945 200.760406,280.878052 
z"/>
<path fill="#5083EA" opacity="1.000000" stroke="none" 
	d="
M100.214783,263.904907 
	C104.565392,268.391327 108.926529,273.258728 113.433762,278.447601 
	C111.346474,277.402527 108.607857,276.466339 106.994179,274.571930 
	C104.352905,271.471191 102.443436,267.747101 100.214783,263.904907 
z"/>
<path fill="#5083EA" opacity="1.000000" stroke="none" 
	d="
M183.731262,263.946472 
	C177.884460,256.645721 169.414566,259.767700 161.443069,258.840027 
	C166.915833,258.497192 172.875900,257.857574 178.740082,258.353027 
	C180.534958,258.504700 182.066696,261.770874 183.731262,263.946472 
z"/>
<path fill="#5083EA" opacity="1.000000" stroke="none" 
	d="
M209.716064,289.945618 
	C206.851456,287.486481 203.910477,284.665588 200.869263,281.523285 
	C204.946457,282.704193 208.632721,284.726288 209.716064,289.945618 
z"/>
<path fill="#4E83EB" opacity="1.000000" stroke="none" 
	d="
M291.952393,237.453598 
	C293.044373,235.848587 294.508484,234.336960 296.273956,232.713013 
	C296.489624,235.393509 295.795410,237.663406 291.952393,237.453598 
z"/>
<path fill="#5083EA" opacity="1.000000" stroke="none" 
	d="
M184.721359,265.011810 
	C184.528168,265.078888 184.202591,264.911682 183.784470,264.477051 
	C183.990936,264.398956 184.289948,264.588226 184.721359,265.011810 
z"/>
<path fill="#EFFAFA" opacity="1.000000" stroke="none" 
	d="
M189.599579,162.835846 
	C191.750046,164.403549 193.807449,166.360397 196.015121,168.620728 
	C190.873962,170.613495 189.771088,167.408966 189.599579,162.835846 
z"/>
<path fill="#EFFAFA" opacity="1.000000" stroke="none" 
	d="
M183.021530,156.382050 
	C185.108551,157.907211 187.206055,159.812546 189.434662,162.003906 
	C184.645187,163.689194 183.895493,160.158463 183.021530,156.382050 
z"/>
<path fill="#EFF9FA" opacity="1.000000" stroke="none" 
	d="
M168.092285,141.158020 
	C169.688614,142.284317 171.286438,143.779388 173.016113,145.576080 
	C169.296417,146.944427 168.251923,144.750427 168.092285,141.158020 
z"/>
<path fill="#EFF9FA" opacity="1.000000" stroke="none" 
	d="
M176.059357,149.231476 
	C177.244659,149.911118 178.390396,150.942108 179.681458,152.273926 
	C177.291885,153.188202 175.419037,152.959274 176.059357,149.231476 
z"/>
<path fill="#EFF9FA" opacity="1.000000" stroke="none" 
	d="
M173.131058,146.207352 
	C174.038651,146.674728 174.959412,147.501526 176.001282,148.616516 
	C175.129669,148.125397 174.136948,147.346069 173.131058,146.207352 
z"/>
<path fill="#EFFAFA" opacity="1.000000" stroke="none" 
	d="
M193.505692,173.503555 
	C193.487381,173.509781 193.524002,173.497330 193.505692,173.503555 
z"/>
</svg>